<?xml version="1.0" encoding="UTF-8"?>
<svg version="1.1" viewBox="0 0 97 48" xmlns="http://www.w3.org/2000/svg">
<title>logo</title>
<desc>Created with Sketch.</desc>
<g fill="none" fill-rule="evenodd">
<path d="m76.917 35.008c0 5.0185-2.7919 7.5289-7.7166 7.5289-5.1131 0-7.4035-2.7296-7.4035-7.5289v-15.246h5.6469v15.497c0 1.6944 0.56453 3.1372 2.4466 3.1372 1.9144 0 2.3212-1.7575 2.3212-3.4203v-15.214h4.7055v15.246zm2.8867-15.246h8.4064c4.2348 0 7.4974 1.9451 7.4974 6.3368 0 2.3519-1.5367 4.3294-3.7333 5.1438l3.7333 10.855h-5.583l-2.7919-9.6624h-1.8828v9.6624h-5.6461v-22.335zm5.6461 9.0971h1.0983c2.1328 0 3.5133-0.65914 3.5133-2.4473 0-2.3204-1.7882-2.5088-3.671-2.5088h-0.94062v4.9562zm-41.086-24.401h14.56v43.542h-13.042v-5.9378l-19.32-0.022076h-26.561v-9.4843l14.074-10.57c2.5357-2.173 5.5562-4.711 5.5562-8.3339 0-2.4166-1.5099-4.3491-4.0463-4.3491-3.8658 0-4.953 3.9856-5.1336 7.1867l-10.45-2.0531c1.1472-8.8787 7.551-14.437 16.49-14.437 8.2764 0 15.281 4.4689 15.281 13.409 0 4.4697-2.0523 7.793-5.3157 10.691l-9.6025 7.1891-0.96664 0.60316 10.676-0.040999 17.802-27.393zm10.218 13.562h3.2792v-3.2792h-3.2792v3.2792zm-8.6997 13.831v-14.214l-8.9686 14.214h8.9686zm20.742-22.557c0-0.90435-0.22628-2.4686-1.4515-2.4686-1.4318 0-1.6392 2.0161-1.6392 4.5044 0 2.7509 0.13167 4.4658 1.7149 4.4658 1.2434 0 1.5264-1.0171 1.6013-2.6949l2.9409 0.26413c0 2.9401-1.7535 4.9183-4.6936 4.9183-4.107 0-5.2195-3.4865-5.2195-6.9723 0-3.2232 1.0928-6.973 5.2195-6.973 3.2421 0 4.6936 2.1856 4.6936 4.9562h-3.1664zm9.8934-4.9561c3.9951 0 5.2203 3.5425 5.2203 6.973 0 3.4298-1.2253 6.9723-5.2203 6.9723-3.9943 0-5.2195-3.5425-5.2195-6.9723 0-3.4305 1.2253-6.973 5.2195-6.973zm0 11.458c1.5643 0 1.5643-1.8465 1.5643-4.4847 0-2.6389 0-4.4855-1.5643-4.4855-1.5635 0-1.5635 1.8465-1.5635 4.4855 0 2.6382 0 4.4847 1.5635 4.4847zm7.2177-11.194h4.7488l1.4515 7.5194h0.037846l1.7149-7.5194h4.6164v13.418h-3.3911v-9.9124h-0.037846l-2.3188 9.9124h-2.0531l-2.1296-10.251h-0.037846v10.251h-2.6011v-13.418z" fill="#fff"/>
</g>
</svg>