<svg id="Layer_1" data-name="Layer 1" xmlns="http://www.w3.org/2000/svg" viewBox="0 0 376.65 73.1">
  <title>voyo-2-white</title>
  <g>
    <path d="M71.85,5.34l-22.09,0a1.25,1.25,0,0,0-1.2.89c-.37,1.26-1.52,4.13-5,10.18-5.32,9.22-7,10-7,10h0s-1.7-.88-7-10c-3.49-6-4.64-8.92-5-10.18a1.23,1.23,0,0,0-1.19-.89l-22.1,0A1.26,1.26,0,0,0,0,6.88C.77,9.94,3.71,18.36,15.47,38.73,27.93,60.3,33.76,66.64,35.74,68.38a1.23,1.23,0,0,0,1.63,0c2-1.73,7.76-8,20.26-29.65C69.38,18.38,72.33,10,73.07,6.89a1.26,1.26,0,0,0-1.22-1.55" fill="#fff"/>
    <path d="M118.08,36.55h0s-.79,1.63-9.9,6.89-10.91,5.12-10.91,5.12-1-1.48-1-12,1-12,1-12h0s1.82-.13,10.91,5.12,9.89,6.88,9.9,6.89ZM104.17,4.72A31.83,31.83,0,1,0,136,36.55,31.83,31.83,0,0,0,104.17,4.72" fill="#fff"/>
    <path d="M162.63,67.76a1.25,1.25,0,0,1-1.25-1.25V51h0s-3.56-1.69-15.11-21.7c-7.88-13.65-10.24-19.82-11-22.36a1.26,1.26,0,0,1,1.21-1.59h22.05a1.23,1.23,0,0,1,1.19.89c.38,1.27,1.53,4.14,5,10.19,5.35,9.26,7,10,7,10h0s1.65-.78,7-10c3.49-6.05,4.64-8.92,5-10.19a1.25,1.25,0,0,1,1.2-.89h22a1.25,1.25,0,0,1,1.2,1.59c-.7,2.54-3.06,8.71-10.94,22.36C185.75,49.3,182.19,51,182.19,51h0V66.51a1.25,1.25,0,0,1-1.25,1.25Z" fill="#fff"/>
    <path d="M254.42,36.55h0s-.79,1.63-9.9,6.89-10.91,5.12-10.91,5.12-1-1.48-1-12,1-12,1-12h0s1.82-.13,10.91,5.12,9.89,6.88,9.9,6.89ZM240.51,4.72a31.83,31.83,0,1,0,31.83,31.83A31.83,31.83,0,0,0,240.51,4.72" fill="#fff"/>
    <path d="M313.3,1.25l0,22.1a1.24,1.24,0,0,0,.89,1.19c1.26.38,4.13,1.52,10.18,5,9.22,5.32,10,7,10,7h0s-.88,1.7-10,7c-6.05,3.49-8.92,4.64-10.18,5a1.24,1.24,0,0,0-.89,1.19l0,22.1a1.25,1.25,0,0,0,1.54,1.22c3.06-.73,11.48-3.67,31.85-15.44,21.57-12.45,27.91-18.29,29.65-20.27a1.23,1.23,0,0,0,0-1.63c-1.73-2-8-7.76-29.65-20.26C326.34,3.72,317.92.77,314.85,0a1.25,1.25,0,0,0-1.55,1.21" fill="#fff"/>
  </g>
</svg>
